# xmcd CD database file
#
# Track frame offsets:
#	150
#	17646
#	31483
#	48490
#	69310
#	83009
#	98176
#	109304
#	127921
#	146372
#	161867
#	177668
#	200349
#	218733
#
# Disc length: 3178 seconds
#
# Revision: 2
# Processed by: cddbd v1.5.2PL0 Copyright (c) Steve Scherf et al.
# Submitted via: CDex 1.51
#
DISCID=c10c680e
DTITLE=Mark Sterling - Take from it what you need
DYEAR=2009
DGENRE=Blues
TTITLE0=I've got to cross that river Jordan
TTITLE1=Passin me by
TTITLE2=Step into thelight
TTITLE3=I should have seen it comin
TTITLE4=Keep your hands off her
TTITLE5=No one home
TTITLE6=Finger fun
TTITLE7=Take from it what you need
TTITLE8=Ride till I die
TTITLE9=Now
TTITLE10=Ringin true
TTITLE11=Last fair deal gone down
TTITLE12=Wishin our time away
TTITLE13=A pocket full of fingers
EXTD=YEAR: 2009
EXTT0=
EXTT1=
EXTT2=
EXTT3=
EXTT4=
EXTT5=
EXTT6=
EXTT7=
EXTT8=
EXTT9=
EXTT10=
EXTT11=
EXTT12=
EXTT13=
PLAYORDER=
